<svg xmlns="http://www.w3.org/2000/svg" viewBox="0 0 64 64" fill="none">
  <defs>
    <filter id="a" x="-4" y="-2" width="76" height="76" filterUnits="userSpaceOnUse" color-interpolation-filters="sRGB">
      <feFlood flood-opacity="0" result="BackgroundImageFix"/>
      <feColorMatrix in="SourceAlpha" type="matrix" values="0 0 0 0 0 0 0 0 0 0 0 0 0 0 0 0 0 0 127 0" result="hardAlpha"/>
      <feOffset dy="4"/>
      <feGaussianBlur stdDeviation="3"/>
      <feComposite in2="hardAlpha" operator="out"/>
      <feColorMatrix type="matrix" values="0 0 0 0 0.819608 0 0 0 0 0.129412 0 0 0 0 0.223529 0 0 0 0.25 0"/>
      <feBlend mode="normal" in2="BackgroundImageFix" result="effect1_dropShadow"/>
      <feBlend mode="normal" in="SourceGraphic" in2="effect1_dropShadow" result="shape"/>
    </filter>
    <linearGradient id="b" x1="32" y1="2" x2="32" y2="62" gradientUnits="userSpaceOnUse">
      <stop stop-color="#FF5F5F"/>
      <stop offset="1" stop-color="#E11D48"/>
    </linearGradient>
  </defs>
  <g filter="url(#a)">
    <path d="M16 2H42L56 16V56C56 59.3137 53.3137 62 50 62H16C12.6863 62 10 59.3137 10 56V8C10 4.68629 12.6863 2 16 2Z" fill="url(#b)"/>
    <path d="M42 2V16H56" fill="#9F1239" fill-opacity="0.4"/>
  </g>
  <path d="M25 42V28H30.5C32.5 28 34 29.2 34 31.5C34 33.8 32.5 35 30.5 35H27V42H25ZM27 33.2H30.3C31.5 33.2 32.1 32.6 32.1 31.5C32.1 30.4 31.5 29.8 30.3 29.8H27V33.2ZM36 42V28H40.5C43.5 28 45.5 29.8 45.5 32.5C45.5 35.2 43.5 37 40.5 37H38V42H36ZM38 35.2H40.3C41.8 35.2 43.3 34.4 43.3 32.5C43.3 30.6 41.8 29.8 40.3 29.8H38V35.2ZM47 42V28H54V30H49V34H53V36H49V42H47Z" fill="white"/>
</svg>
